<?xml version="1.0" standalone="no"?>
<!DOCTYPE svg PUBLIC "-//W3C//DTD SVG 20010904//EN"
 "http://www.w3.org/TR/2001/REC-SVG-20010904/DTD/svg10.dtd">
<svg version="1.0" xmlns="http://www.w3.org/2000/svg"
 width="1471.000000pt" height="1471.000000pt" viewBox="0 0 1471.000000 1471.000000"
 preserveAspectRatio="xMidYMid meet">
<metadata>
Created by potrace 1.11, written by Peter Selinger 2001-2013
</metadata>
<g transform="translate(0.000000,1471.000000) scale(0.100000,-0.100000)"
fill="#000000" stroke="none">
<path d="M7120 14703 c-171 -7 -428 -25 -550 -39 -1651 -181 -3167 -895 -4348
-2049 -637 -622 -1128 -1310 -1512 -2116 -612 -1287 -835 -2752 -634 -4169
140 -992 475 -1930 997 -2795 454 -751 1084 -1454 1792 -2001 1618 -1248 3692
-1768 5705 -1429 1333 225 2539 790 3586 1682 174 148 575 545 725 718 645
743 1127 1578 1435 2488 460 1362 515 2804 159 4192 -257 1003 -743 1975
-1389 2775 -242 300 -652 726 -916 951 -725 619 -1483 1060 -2360 1374 -830
297 -1845 455 -2690 418z m725 -458 c821 -62 1573 -250 2323 -581 1431 -633
2650 -1794 3352 -3194 187 -374 372 -841 468 -1187 l20 -72 -72 -158 c-540
-1176 -1322 -2201 -2496 -3268 -303 -276 -850 -749 -1078 -932 -93 -75 -298
-225 -333 -244 -17 -9 -18 -7 -8 18 55 143 127 351 168 485 39 127 53 190 62
283 51 536 -148 1022 -559 1366 -388 324 -890 534 -1892 790 -853 218 -1011
268 -1285 407 -120 61 -314 187 -384 249 l-44 39 149 104 c1500 1048 2317
2081 2470 3120 72 491 -145 1069 -499 1332 -157 116 -301 166 -503 175 -275
12 -512 -56 -755 -215 -262 -172 -458 -331 -674 -547 -600 -599 -1024 -1364
-1169 -2110 -38 -198 -50 -320 -50 -545 0 -307 36 -533 124 -785 34 -95 128
-296 179 -381 l30 -50 -302 -181 c-812 -487 -1695 -942 -2820 -1452 -566 -257
-1671 -730 -1681 -720 -16 15 -85 480 -113 749 -25 250 -25 978 0 1230 125
1232 518 2320 1195 3305 353 514 820 1021 1307 1420 1116 915 2471 1451 3930
1554 207 14 723 12 940 -4z m-70 -1740 c144 -38 263 -147 356 -328 67 -131
129 -368 129 -495 0 -30 -7 -102 -16 -160 -122 -821 -776 -1678 -1959 -2564
-155 -116 -497 -357 -506 -358 -10 0 -124 228 -152 305 -39 103 -75 246 -93
365 -21 139 -21 426 1 585 125 934 773 1926 1629 2493 226 150 433 203 611
157z m6424 -4215 c71 -522 80 -1128 25 -1660 -52 -511 -190 -1115 -361 -1590
-472 -1309 -1289 -2411 -2401 -3237 -966 -719 -2135 -1178 -3337 -1312 -594
-66 -1228 -54 -1805 35 -1817 280 -3417 1244 -4520 2724 -441 593 -819 1337
-1040 2050 -28 91 -52 180 -53 199 l-2 33 215 90 c654 273 1281 547 1812 791
312 144 882 419 1028 495 41 22 181 93 310 159 516 264 1028 552 1477 831 72
45 134 82 137 82 3 0 39 -30 78 -67 187 -171 459 -341 733 -458 226 -97 427
-156 1180 -350 649 -167 1016 -290 1319 -442 357 -179 610 -415 715 -667 65
-155 76 -221 76 -441 l0 -200 -64 -190 c-97 -290 -202 -552 -322 -805 l-62
-129 -156 -62 c-248 -99 -439 -159 -736 -233 -283 -70 -503 -109 -1140 -200
-738 -107 -915 -148 -1155 -272 -236 -123 -382 -296 -452 -539 -30 -105 -32
-324 -4 -425 45 -164 146 -328 283 -461 107 -104 192 -165 312 -225 121 -60
208 -80 397 -94 577 -41 1146 142 1677 539 440 329 874 845 1216 1446 50 88
92 162 93 165 2 4 73 42 158 86 297 154 565 328 825 538 224 180 815 691 1139
985 221 201 754 734 927 926 370 413 649 770 918 1175 197 296 405 645 498
834 17 35 30 51 34 44 4 -7 16 -83 28 -168z m-5264 -4742 c-64 -97 -233 -315
-334 -430 -439 -501 -919 -808 -1417 -909 -129 -26 -435 -37 -553 -21 -254 36
-519 323 -498 541 16 174 126 295 335 371 183 66 356 100 895 176 394 55 692
103 897 144 172 35 504 117 620 153 41 13 77 22 79 21 2 -2 -9 -23 -24 -46z"/>
</g>
</svg>
